<svg width="559" height="428" viewBox="0 0 559 428" fill="none" xmlns="http://www.w3.org/2000/svg">
<path fill-rule="evenodd" clip-rule="evenodd" d="M407.367 2.36501C405.237 6.34418 405.905 11.194 410.929 28.2468C418.12 52.6587 419.282 55.4492 430.326 74.867L440.483 92.728L444.384 91.6103C446.53 90.9952 449.86 90.4914 451.787 90.4914C454.077 90.4914 455.095 89.9619 454.724 88.9629C454.412 88.1227 451.253 78.0794 447.702 66.6457C444.151 55.212 440.425 44.2369 439.421 42.2558C435.324 34.1776 411.716 0 410.231 0C409.353 0 408.064 1.06389 407.367 2.36501ZM423.75 24.9059C436.327 43.7795 439.783 52.5462 429.069 38.3965C411.395 15.057 406.881 7.33714 410.907 7.33714C411.53 7.33714 417.31 15.2429 423.75 24.9059ZM411.444 82.5416C406.645 83.3964 391.605 87.2019 378.02 90.9977C345.314 100.137 345.261 100.143 333.595 95.5003C322.072 90.9133 318.06 90.8033 307.483 94.7837C294.054 99.8365 270.525 114.256 265.699 120.393C263.479 123.213 260.98 131.693 262.052 132.764C262.297 133.009 270.906 134.012 281.182 134.992C298.943 136.687 299.976 136.667 302.088 134.556C305.094 131.55 353.572 107.665 368.793 101.689C393.169 92.1203 413.973 87.2081 417.771 90.1246C418.471 90.6626 421.163 96.3306 423.753 102.72C426.342 109.109 431.136 119.603 434.405 126.039C437.675 132.476 440.35 138.116 440.35 138.573C440.35 140.227 436.942 139.352 433.817 136.895L430.625 134.385L420.055 140.625C408.195 147.629 384.499 159.612 374.298 163.765L367.57 166.504L359.619 163.518C351.731 160.555 351.671 160.498 352.056 156.205C352.269 153.826 351.95 151.574 351.346 151.201C350.176 150.479 243.368 135.192 208.555 130.765C197.118 129.311 184.699 128.398 180.956 128.735C173.488 129.409 163.617 133.84 159.322 138.446L156.571 141.395L165.234 150.795C170 155.964 174.699 160.194 175.679 160.194C176.659 160.194 179.693 159.056 182.424 157.663C185.153 156.271 188.158 155.429 189.102 155.791C193.409 157.443 189.875 160.472 173.999 168.737C164.75 173.554 155.977 178.82 154.507 180.439C152.057 183.136 149.352 193.741 150.756 195.145C151.084 195.474 159.95 191.503 170.456 186.322C189.122 177.117 189.615 176.952 192.023 179.131C193.379 180.358 194.488 181.701 194.488 182.115C194.488 182.53 192.011 184.221 188.984 185.874C184.958 188.073 183.479 189.627 183.479 191.657C183.479 193.185 184.004 194.434 184.645 194.434C185.285 194.434 194.479 190.327 205.075 185.307C223.798 176.436 228.898 174.9 222.621 180.019C216.458 185.045 153.308 215.477 147.737 216.105C140.622 216.907 134.698 213.867 114.98 199.294C92.0527 182.35 91.2491 182.189 74.3091 191.126C65.9082 195.558 64.8293 196.52 64.8293 199.576V203.025L73.5165 198.651C78.2955 196.245 82.5608 194.632 82.995 195.068C84.1252 196.196 80.2611 198.835 69.4652 204.306C64.2777 206.936 59.4619 210.157 58.7623 211.463C56.9238 214.898 57.1085 221.752 59.0191 220.984C59.8607 220.645 64.0257 218.847 68.2775 216.987L76.0069 213.607L86.6254 223.9C112.461 248.943 111.547 248.22 115.388 246.616L118.852 245.169L104.073 229.393C95.9437 220.717 89.2932 213.164 89.2932 212.61C89.2932 212.054 90.6803 211.253 92.3745 210.828C94.7805 210.224 97.5706 211.442 105.086 216.375C116.769 224.042 125.325 227.442 133.036 227.48L138.833 227.509L131.822 231.428C127.967 233.584 124.544 236.047 124.217 236.902C123.463 238.864 124.668 242.126 126.147 242.126C126.761 242.126 147.317 233.825 171.825 223.68L216.384 205.236L222.125 209.617C225.283 212.028 228.702 214 229.723 214C234.694 214 289.193 193.439 316.958 181.089C330.868 174.902 331.398 174.772 341.422 175.123L351.669 175.48L344.941 178.044C225.284 223.65 157.499 245.409 122.319 249.504C112.464 250.653 101.525 253.628 101.525 255.163C101.525 255.402 103.037 257.294 104.884 259.368C107.696 262.523 108.892 263.032 112.232 262.49C115.707 261.926 116.457 262.304 118.077 265.436C119.1 267.412 120.334 269.019 120.822 269.007C121.309 268.996 126.937 267.317 133.328 265.277C139.719 263.237 176.599 251.66 215.282 239.55C345.27 198.86 376.175 187.92 415.275 168.759C435.234 158.979 446.544 151.785 450.338 146.459C455.066 139.819 454.014 133.823 444.028 110.516C431.531 81.3445 429.236 79.3744 411.444 82.5416ZM442.181 94.1649C441.29 95.6079 451.929 118.617 453.487 118.617C456.562 118.617 469.707 100.69 469.707 96.4969C469.707 95.356 468.836 94.0879 467.772 93.6794C464.539 92.4394 442.996 92.8479 442.181 94.1649ZM462.788 96.4418C464.556 97.1376 463.382 98.0462 457.355 100.646C453.125 102.471 449.26 103.545 448.764 103.035C448.268 102.526 447.489 100.596 447.031 98.7457L446.201 95.3829L453.367 95.4685C457.309 95.5161 461.548 95.9539 462.788 96.4418ZM330.96 100.388C335.958 102.469 340.048 104.664 340.048 105.266C340.048 106.442 321.43 116.171 319.179 116.171C316.519 116.171 318.916 113.067 323.63 110.409C326.269 108.922 328.428 107.071 328.428 106.297C328.428 105.524 325.009 103.488 320.832 101.775C316.653 100.062 313.521 98.1979 313.871 97.6329C315.143 95.5736 322.078 96.6925 330.96 100.388ZM396.302 107.051L393.493 117.497L389.923 113.166C385.914 108.305 385.481 108.154 382.255 110.513C380.069 112.11 380.207 112.504 385.101 118.65C390.982 126.035 390.995 125.779 384.057 139.711C381.463 144.923 379.566 149.189 379.844 149.189C380.121 149.189 382.828 147.984 385.859 146.512C390.024 144.489 391.98 142.539 393.867 138.524L396.365 133.213L399.116 136.411C401.603 139.301 402.188 139.464 405.17 138.106L408.47 136.603L403.667 130.571L398.862 124.538L399.61 110.572C400.023 102.89 400.078 96.6057 399.734 96.6057C399.39 96.6057 397.845 101.306 396.302 107.051ZM314.061 105.245C317.766 106.535 317.681 106.605 303.373 113.865C289.692 120.806 288.628 121.141 282.718 120.357C279.244 119.896 276.809 119.013 277.211 118.362C278.592 116.127 291.528 108.509 297.728 106.276C304.952 103.675 308.852 103.429 314.061 105.245ZM458.868 116.417L453.534 121.405L458.698 138.66C461.538 148.149 464.799 158.391 465.944 161.417C468.3 167.643 494.818 207.886 496.566 207.886C498.264 207.886 501.51 202.784 501.51 200.114C501.51 196.429 490.682 160.266 487.462 153.198C484.514 146.727 466.448 113.82 464.994 112.272C464.558 111.808 461.801 113.674 458.868 116.417ZM344.024 126.355C329.054 132.455 316.809 137.749 316.81 138.12C316.814 139.258 371.624 149.473 373.038 148.6C373.767 148.149 376.585 143.364 379.299 137.965C384.1 128.42 384.176 128.078 382.056 125.524C377.456 119.978 372.567 114.955 371.917 115.106C371.544 115.193 358.993 120.256 344.024 126.355ZM267.089 144.313C306.207 149.702 339.724 154.422 341.569 154.803C344.466 155.399 344.749 155.823 343.638 157.898C342.93 159.221 340.54 161.165 338.327 162.221C334.443 164.072 331.852 163.645 263.479 149.889C224.525 142.053 192.103 135.431 191.43 135.175C187.307 133.601 203.73 135.584 267.089 144.313ZM484.295 178.104C493.132 190.071 496.617 195.777 496.617 198.281C496.617 200.201 496.421 201.771 496.183 201.771C495.944 201.771 490.165 193.362 483.339 183.084C472.419 166.639 469.554 161.417 471.451 161.417C471.739 161.417 477.518 168.927 484.295 178.104ZM77.5444 281.422C68.165 284.57 59.1941 291.277 54.7477 298.466C52.4432 302.192 49.3865 311.621 45.4368 327.182L39.5569 350.349L23.9624 350.96L8.3691 351.571L4.18455 356.139C1.35652 359.227 0 361.902 0 364.393V368.08H17.5944H35.1889L28.635 394.066C25.0302 408.358 22.0664 420.19 22.0493 420.357C22.0322 420.525 27.9476 420.663 35.1962 420.663H48.3737L54.9019 394.371L61.4313 368.08H72.3043C79.0881 368.08 83.1772 368.563 83.1772 369.365C83.1772 370.072 81.2507 378.298 78.8961 387.646C74.0669 406.819 73.9103 408.416 76.3959 413.222C78.9817 418.221 85.1136 420.663 95.0777 420.663H103.552L104.988 414.441C106.301 408.755 106.216 408.045 104.006 406.187C101.619 404.18 101.744 403.536 113.755 355.851C125.698 308.431 127.41 298.537 124.617 293.099C118.008 280.24 96.7694 274.972 77.5444 281.422ZM240.112 281.208C231.972 286.169 230.001 296.16 235.982 302.14C244.528 310.683 259.317 302.487 259.317 289.211C259.317 280.02 249.067 275.748 240.112 281.208ZM97.8556 294.709C101.243 298.095 101 300.764 95.3199 322.62C92.5799 333.163 89.807 343.853 89.1562 346.374L87.9758 350.96H77.0136C70.9857 350.96 66.0525 350.583 66.0525 350.122C66.0525 348.1 78.5952 301.303 79.6814 299.276C81.3987 296.067 88.092 292.273 92.0454 292.268C93.8949 292.265 96.5101 293.363 97.8556 294.709ZM373.218 304.186C372.572 306.708 371.362 311.935 370.53 315.803L369.016 322.834H362.54C356.099 322.834 356.057 322.859 354.791 327.42C352.526 335.575 352.864 336.286 359.008 336.286C362.035 336.286 364.512 336.815 364.512 337.462C364.512 338.109 360.927 353.06 356.544 370.686C347.935 405.316 347.713 408.173 353.134 414.613C356.892 419.078 363.056 420.945 372.38 420.443C378.942 420.089 379.713 419.759 380.438 416.994C382.941 407.451 382.941 407.402 380.415 406.6C374.926 404.859 375.106 402.721 383.593 368.803L391.696 336.408L397.288 336.041C403.237 335.651 402.854 336.119 405.314 326.197C406.132 322.897 406.044 322.834 400.538 322.834C395.77 322.834 395.022 322.513 395.557 320.694C395.903 319.518 397.051 315.133 398.108 310.951C399.166 306.768 400.355 302.504 400.75 301.473C401.369 299.86 399.59 299.6 387.931 299.6H374.392L373.218 304.186ZM138.221 325.177C138.221 327.076 117.775 410.957 115.468 418.523C114.868 420.492 116.221 420.663 132.412 420.663C152.954 420.663 158.659 419.35 170.02 412.01C180.523 405.223 189.697 395.39 194.156 386.139C196.188 381.923 200.187 368.982 203.042 357.38L208.233 336.286H214.815C218.52 336.286 221.398 336.837 221.398 337.546C221.398 338.24 218.059 352.124 213.978 368.402C209.898 384.679 206.532 399.975 206.499 402.391C206.354 412.849 214.033 419.414 227.541 420.38L235.897 420.978L237.27 415.623C238.026 412.679 238.864 409.609 239.132 408.802C239.401 407.996 238.547 406.996 237.236 406.579C231.751 404.839 231.958 402.835 241.612 364.151C246.695 343.781 251.145 326.151 251.499 324.974C252.102 322.972 249.975 322.834 218.57 322.834H184.998L176.747 356.157C171.984 375.39 167.296 391.588 165.661 394.467C164.103 397.211 160.581 400.942 157.835 402.758C152.09 406.558 145.56 408.31 145.56 406.05C145.56 404.46 164.781 327.614 165.923 324.64C166.51 323.112 164.438 322.834 152.419 322.834C139.245 322.834 138.221 323.003 138.221 325.177ZM289.286 324.545C278.328 328.009 268.233 335.68 264.29 343.54C263.085 345.939 259.229 359.597 255.721 373.889C248.792 402.118 248.742 403.99 254.703 411.568C262.127 421.004 283.247 423.842 296.457 417.181C302.512 414.128 303.55 413.925 304.886 415.535C307.592 418.798 314.083 420.663 322.731 420.663C331.064 420.663 331.19 420.614 331.886 417.137C332.274 415.198 332.934 412.246 333.352 410.578C333.953 408.185 333.579 407.405 331.582 406.882C330.19 406.518 328.709 405.328 328.29 404.236C327.717 402.743 342.747 338.75 346.907 324.974C347.508 322.98 345.734 322.84 320.865 322.916C302.955 322.971 292.57 323.507 289.286 324.545ZM432.944 324.607C421.167 328.946 412.35 335.974 408.109 344.403C407.049 346.514 403.345 359.566 399.881 373.409C392.745 401.927 392.719 404.577 399.498 412.08C404.957 418.122 412.352 420.663 424.472 420.663C435.931 420.663 443.484 418.508 452.121 412.775C462.925 405.603 464.856 401.877 471.959 374.479C475.483 360.887 478.269 347.428 478.269 344.004C478.269 335.792 474.682 330.532 466.123 326.197C460.272 323.234 458.164 322.844 448.388 322.92C442.285 322.968 435.335 323.727 432.944 324.607ZM499.673 324.363C498.966 326.378 475.823 419.204 475.823 420.027C475.823 420.377 481.752 420.663 488.999 420.663H502.174L509.302 391.992C513.222 376.223 517.556 361.045 518.933 358.263C521.861 352.344 531.001 342.778 536.876 339.48L540.987 337.172L540.136 341.707C539.669 344.201 538.973 347.057 538.591 348.052C538.014 349.555 539.209 349.799 545.623 349.494L553.35 349.126L556.145 338.12C560.374 321.468 560.881 322.441 548.297 323.072C540.151 323.48 536.077 324.341 531.246 326.676L524.897 329.745L525.589 326.289L526.28 322.834H513.245C503.918 322.834 500.057 323.27 499.673 324.363ZM316.807 337.549C316.807 340.544 303.002 393.515 301.273 397.161C299.033 401.877 290.649 407.211 285.475 407.211C280.591 407.211 276.442 404.082 276.442 400.398C276.442 398.743 279.57 384.893 283.391 369.618C291.895 335.636 291.447 336.286 306.355 336.286C312.733 336.286 316.807 336.779 316.807 337.549ZM449.486 337.941C451.129 339.141 451.726 341.077 451.657 344.973C451.551 351.11 441.142 393.574 438.486 398.708C436.168 403.189 430.929 407.211 427.411 407.211C424.134 407.211 420.779 403.03 420.779 398.946C420.779 393.762 433.149 346.746 435.522 342.906C439.206 336.947 445.209 334.813 449.486 337.941Z" fill="#E10838"/>
</svg>
